<?xml version="1.0" encoding="UTF-8"?>
<svg width="128px" height="128px" viewBox="0 0 128 128" xmlns="http://www.w3.org/2000/svg">
  <circle cx="64" cy="64" r="54" fill="#FFD166"/>
  <path d="M64 20c24.3 0 44 19.7 44 44s-19.7 44-44 44S20 88.3 20 64 39.7 20 64 20zm0 8c-19.9 0-36 16.1-36 36s16.1 36 36 36 36-16.1 36-36-16.1-36-36-36z" fill="white"/>
  <path d="M64 36c15.5 0 28 12.5 28 28s-12.5 28-28 28-28-12.5-28-28 12.5-28 28-28z" fill="#FFD166"/>
  <path d="M64 44c11 0 20 9 20 20s-9 20-20 20-20-9-20-20 9-20 20-20z" fill="white"/>
</svg> 