<?xml version="1.0" encoding="UTF-8"?>
<svg width="256px" height="128px" viewBox="0 0 256 128" xmlns="http://www.w3.org/2000/svg">
  <!-- HTML5 Logo -->
  <g transform="translate(0, 0)">
    <path d="M19.569 27l8.087 89.919 36.289 9.682 36.39-9.499 8.096-90.102h-88.862zm69.168 75.3l-22.895 6.05-22.898-6.054-1.477-16.55h11.17l.753 8.46 12.444 3.3.005-.012 12.455-3.216 1.308-14.549h-25.888l-.225-2.255-2.14-24.054h30.91l.405-4.52h-36.915l-.223-2.231-2.187-24.579h47.859l1.021-11.38h-69.188l.223-2.501h88.909l-1.535 17.382h-11.112l-.9 10.084h11.19l-1.354 15.15h-11.173l-.9 10.085h11.19l-1.464 16.45z" fill="#E44D26"/>
    <path d="M128 19.569h-8.246l-1.021 11.38h9.267v-11.38zm-8.246 20.76h-8.907l-.9 10.084h9.807v-10.084zm0 20.76h-9.112l-1.354 15.15h10.466v-15.15zm0 20.76h-9.173l-.9 10.085h10.073v-10.085zm0 20.76h-9.246l-1.464 16.45h10.71v-16.45z" fill="#F16529"/>
  </g>
  
  <!-- CSS3 Logo -->
  <g transform="translate(128, 0)">
    <path d="M19.569 27l8.087 89.919 36.289 9.682 36.39-9.499 8.096-90.102h-88.862zm69.168 75.3l-22.895 6.05-22.898-6.054-1.477-16.55h11.17l.753 8.46 12.444 3.3.005-.012 12.455-3.216 1.308-14.549h-25.888l-.225-2.255-2.14-24.054h30.91l.405-4.52h-36.915l-.223-2.231-2.187-24.579h47.859l1.021-11.38h-69.188l.223-2.501h88.909l-1.535 17.382h-11.112l-.9 10.084h11.19l-1.354 15.15h-11.173l-.9 10.085h11.19l-1.464 16.45z" fill="#264DE4"/>
    <path d="M128 19.569h-8.246l-1.021 11.38h9.267v-11.38zm-8.246 20.76h-8.907l-.9 10.084h9.807v-10.084zm0 20.76h-9.112l-1.354 15.15h10.466v-15.15zm0 20.76h-9.173l-.9 10.085h10.073v-10.085zm0 20.76h-9.246l-1.464 16.45h10.71v-16.45z" fill="#2965F1"/>
  </g>
</svg> 