<?xml version="1.0" encoding="UTF-8"?>
<svg width="128px" height="128px" viewBox="0 0 128 128" xmlns="http://www.w3.org/2000/svg">
  <circle cx="64" cy="64" r="11.4" fill="#61DAFB"/>
  <g stroke="#61DAFB" stroke-width="3" fill="none">
    <ellipse cx="64" cy="64" rx="11.4" ry="11.4"/>
    <path d="M64 20.2c-24.2 0-43.8 19.6-43.8 43.8s19.6 43.8 43.8 43.8 43.8-19.6 43.8-43.8-19.6-43.8-43.8-43.8zm0 76.2c-17.9 0-32.4-14.5-32.4-32.4s14.5-32.4 32.4-32.4 32.4 14.5 32.4 32.4-14.5 32.4-32.4 32.4z"/>
    <path d="M64 20.2c-24.2 0-43.8 19.6-43.8 43.8s19.6 43.8 43.8 43.8 43.8-19.6 43.8-43.8-19.6-43.8-43.8-43.8zm0 76.2c-17.9 0-32.4-14.5-32.4-32.4s14.5-32.4 32.4-32.4 32.4 14.5 32.4 32.4-14.5 32.4-32.4 32.4z" transform="rotate(60 64 64)"/>
    <path d="M64 20.2c-24.2 0-43.8 19.6-43.8 43.8s19.6 43.8 43.8 43.8 43.8-19.6 43.8-43.8-19.6-43.8-43.8-43.8zm0 76.2c-17.9 0-32.4-14.5-32.4-32.4s14.5-32.4 32.4-32.4 32.4 14.5 32.4 32.4-14.5 32.4-32.4 32.4z" transform="rotate(120 64 64)"/>
  </g>
  <text x="64" y="100" text-anchor="middle" font-family="Arial" font-size="12" fill="#61DAFB">React Native</text>
</svg> 